<svg xmlns="http://www.w3.org/2000/svg" viewBox="0 0 900 520" width="900" height="520" font-family="Inter, Segoe UI, Arial, sans-serif">
  <!-- Background -->
  <rect width="900" height="520" fill="#1e1e1e" rx="12"/>

  <!-- Title -->
  <text x="450" y="36" fill="#ffffff" font-size="18" font-weight="700" text-anchor="middle">Evolución del Sistema: 8 Semanas de Arquitectura</text>
  <text x="450" y="56" fill="#9ca3af" font-size="12" text-anchor="middle">De código funcional a sistema robusto, seguro y documentado</text>

  <!-- Timeline horizontal line -->
  <line x1="60" y1="120" x2="840" y2="120" stroke="#374151" stroke-width="2"/>

  <!-- Week dots and labels -->
  <!-- Week 01 -->
  <circle cx="95" cy="120" r="10" fill="#6366f1"/>
  <text x="95" y="108" fill="#6366f1" font-size="11" font-weight="600" text-anchor="middle">S01</text>
  <rect x="55" y="135" width="80" height="80" fill="#1e293b" rx="6" stroke="#6366f1" stroke-width="1.5"/>
  <text x="95" y="155" fill="#6366f1" font-size="11" font-weight="700" text-anchor="middle">📋 Contexto</text>
  <text x="95" y="170" fill="#cbd5e1" font-size="9.5" text-anchor="middle">Metodología</text>
  <text x="95" y="183" fill="#cbd5e1" font-size="9.5" text-anchor="middle">Dominio</text>
  <text x="95" y="196" fill="#cbd5e1" font-size="9.5" text-anchor="middle">Actores</text>

  <!-- Arrow 01→02 -->
  <line x1="137" y1="120" x2="188" y2="120" stroke="#374151" stroke-width="1.5" marker-end="url(#arr)"/>

  <!-- Week 02 -->
  <circle cx="200" cy="120" r="10" fill="#8b5cf6"/>
  <text x="200" y="108" fill="#8b5cf6" font-size="11" font-weight="600" text-anchor="middle">S02</text>
  <rect x="160" y="135" width="80" height="80" fill="#1e293b" rx="6" stroke="#8b5cf6" stroke-width="1.5"/>
  <text x="200" y="155" fill="#8b5cf6" font-size="11" font-weight="700" text-anchor="middle">🧱 SOLID</text>
  <text x="200" y="170" fill="#cbd5e1" font-size="9.5" text-anchor="middle">SRP, OCP</text>
  <text x="200" y="183" fill="#cbd5e1" font-size="9.5" text-anchor="middle">LSP, ISP</text>
  <text x="200" y="196" fill="#cbd5e1" font-size="9.5" text-anchor="middle">DIP</text>

  <!-- Arrow 02→03 -->
  <line x1="242" y1="120" x2="293" y2="120" stroke="#374151" stroke-width="1.5" marker-end="url(#arr)"/>

  <!-- Week 03 -->
  <circle cx="305" cy="120" r="10" fill="#0ea5e9"/>
  <text x="305" y="108" fill="#0ea5e9" font-size="11" font-weight="600" text-anchor="middle">S03</text>
  <rect x="265" y="135" width="80" height="80" fill="#1e293b" rx="6" stroke="#0ea5e9" stroke-width="1.5"/>
  <text x="305" y="155" fill="#0ea5e9" font-size="11" font-weight="700" text-anchor="middle">🏛️ Patrones</text>
  <text x="305" y="170" fill="#cbd5e1" font-size="9.5" text-anchor="middle">Layered</text>
  <text x="305" y="183" fill="#cbd5e1" font-size="9.5" text-anchor="middle">Event-Driven</text>
  <text x="305" y="196" fill="#cbd5e1" font-size="9.5" text-anchor="middle">Client-Server</text>

  <!-- Arrow 03→04 -->
  <line x1="347" y1="120" x2="398" y2="120" stroke="#374151" stroke-width="1.5" marker-end="url(#arr)"/>

  <!-- Week 04 -->
  <circle cx="410" cy="120" r="10" fill="#10b981"/>
  <text x="410" y="108" fill="#10b981" font-size="11" font-weight="600" text-anchor="middle">S04</text>
  <rect x="370" y="135" width="80" height="80" fill="#1e293b" rx="6" stroke="#10b981" stroke-width="1.5"/>
  <text x="410" y="155" fill="#10b981" font-size="11" font-weight="700" text-anchor="middle">🔌 APIs</text>
  <text x="410" y="170" fill="#cbd5e1" font-size="9.5" text-anchor="middle">REST</text>
  <text x="410" y="183" fill="#cbd5e1" font-size="9.5" text-anchor="middle">Contratos</text>
  <text x="410" y="196" fill="#cbd5e1" font-size="9.5" text-anchor="middle">Módulos</text>

  <!-- Arrow 04→05 -->
  <line x1="452" y1="120" x2="503" y2="120" stroke="#374151" stroke-width="1.5" marker-end="url(#arr)"/>

  <!-- Week 05 -->
  <circle cx="515" cy="120" r="10" fill="#f59e0b"/>
  <text x="515" y="108" fill="#f59e0b" font-size="11" font-weight="600" text-anchor="middle">S05</text>
  <rect x="475" y="135" width="80" height="80" fill="#1e293b" rx="6" stroke="#f59e0b" stroke-width="1.5"/>
  <text x="515" y="155" fill="#f59e0b" font-size="11" font-weight="700" text-anchor="middle">🎨 GoF</text>
  <text x="515" y="170" fill="#cbd5e1" font-size="9.5" text-anchor="middle">Factory</text>
  <text x="515" y="183" fill="#cbd5e1" font-size="9.5" text-anchor="middle">Observer</text>
  <text x="515" y="196" fill="#cbd5e1" font-size="9.5" text-anchor="middle">Strategy</text>

  <!-- Arrow 05→06 -->
  <line x1="557" y1="120" x2="608" y2="120" stroke="#374151" stroke-width="1.5" marker-end="url(#arr)"/>

  <!-- Week 06 -->
  <circle cx="620" cy="120" r="10" fill="#06b6d4"/>
  <text x="620" y="108" fill="#06b6d4" font-size="11" font-weight="600" text-anchor="middle">S06</text>
  <rect x="580" y="135" width="80" height="80" fill="#1e293b" rx="6" stroke="#06b6d4" stroke-width="1.5"/>
  <text x="620" y="155" fill="#06b6d4" font-size="11" font-weight="700" text-anchor="middle">🔷 Hexagonal</text>
  <text x="620" y="170" fill="#cbd5e1" font-size="9.5" text-anchor="middle">Puertos</text>
  <text x="620" y="183" fill="#cbd5e1" font-size="9.5" text-anchor="middle">Adaptadores</text>
  <text x="620" y="196" fill="#cbd5e1" font-size="9.5" text-anchor="middle">Clean Arch</text>

  <!-- Arrow 06→07 -->
  <line x1="662" y1="120" x2="713" y2="120" stroke="#374151" stroke-width="1.5" marker-end="url(#arr)"/>

  <!-- Week 07 -->
  <circle cx="725" cy="120" r="10" fill="#0284c7"/>
  <text x="725" y="108" fill="#0284c7" font-size="11" font-weight="600" text-anchor="middle">S07</text>
  <rect x="685" y="135" width="80" height="80" fill="#1e293b" rx="6" stroke="#0284c7" stroke-width="1.5"/>
  <text x="725" y="155" fill="#0284c7" font-size="11" font-weight="700" text-anchor="middle">🐳 Docker</text>
  <text x="725" y="170" fill="#cbd5e1" font-size="9.5" text-anchor="middle">Containers</text>
  <text x="725" y="183" fill="#cbd5e1" font-size="9.5" text-anchor="middle">Compose</text>
  <text x="725" y="196" fill="#cbd5e1" font-size="9.5" text-anchor="middle">12-Factor</text>

  <!-- Arrow 07→08 -->
  <line x1="767" y1="120" x2="808" y2="120" stroke="#374151" stroke-width="1.5" marker-end="url(#arr)"/>

  <!-- Week 08 -->
  <circle cx="820" cy="120" r="10" fill="#ef4444"/>
  <text x="820" y="108" fill="#ef4444" font-size="11" font-weight="600" text-anchor="middle">S08</text>
  <rect x="780" y="135" width="80" height="80" fill="#1e293b" rx="6" stroke="#ef4444" stroke-width="1.5"/>
  <text x="820" y="155" fill="#ef4444" font-size="11" font-weight="700" text-anchor="middle">🔒 Security</text>
  <text x="820" y="170" fill="#cbd5e1" font-size="9.5" text-anchor="middle">JWT + RBAC</text>
  <text x="820" y="183" fill="#cbd5e1" font-size="9.5" text-anchor="middle">bcrypt</text>
  <text x="820" y="196" fill="#cbd5e1" font-size="9.5" text-anchor="middle">OWASP</text>

  <!-- Artifacts produced row -->
  <text x="60" y="250" fill="#6b7280" font-size="11" font-weight="600">ARTEFACTOS</text>

  <text x="95" y="268" fill="#4b5563" font-size="8.5" text-anchor="middle">README</text>
  <text x="95" y="279" fill="#4b5563" font-size="8.5" text-anchor="middle">Dominio</text>

  <text x="200" y="268" fill="#4b5563" font-size="8.5" text-anchor="middle">Clases</text>
  <text x="200" y="279" fill="#4b5563" font-size="8.5" text-anchor="middle">SOLID</text>

  <text x="305" y="268" fill="#4b5563" font-size="8.5" text-anchor="middle">Diagrama</text>
  <text x="305" y="279" fill="#4b5563" font-size="8.5" text-anchor="middle">capas</text>

  <text x="410" y="268" fill="#4b5563" font-size="8.5" text-anchor="middle">Postman/</text>
  <text x="410" y="279" fill="#4b5563" font-size="8.5" text-anchor="middle">OpenAPI</text>

  <text x="515" y="268" fill="#4b5563" font-size="8.5" text-anchor="middle">3 patrones</text>
  <text x="515" y="279" fill="#4b5563" font-size="8.5" text-anchor="middle">GoF app</text>

  <text x="620" y="268" fill="#4b5563" font-size="8.5" text-anchor="middle">Hexagonal</text>
  <text x="620" y="279" fill="#4b5563" font-size="8.5" text-anchor="middle">completa</text>

  <text x="725" y="268" fill="#4b5563" font-size="8.5" text-anchor="middle">Dockerfile</text>
  <text x="725" y="279" fill="#4b5563" font-size="8.5" text-anchor="middle">Compose</text>

  <text x="820" y="268" fill="#4b5563" font-size="8.5" text-anchor="middle">JWT+RBAC</text>
  <text x="820" y="279" fill="#4b5563" font-size="8.5" text-anchor="middle">+hardening</text>

  <!-- Final product box -->
  <rect x="80" y="310" width="740" height="90" fill="#0f172a" rx="8" stroke="#6366f1" stroke-width="2" stroke-dasharray="6,3"/>
  <text x="450" y="335" fill="#6366f1" font-size="14" font-weight="700" text-anchor="middle">🏆 SEMANA 09 — Proyecto Integrador Final</text>
  <text x="450" y="358" fill="#cbd5e1" font-size="12" text-anchor="middle">Sistema completo con arquitectura hexagonal + Docker + JWT + RBAC</text>
  <text x="150" y="385" fill="#94a3b8" font-size="11" text-anchor="middle">📋 3 ADRs</text>
  <text x="300" y="385" fill="#94a3b8" font-size="11" text-anchor="middle">🗺️ C4 L1 + L2</text>
  <text x="450" y="385" fill="#94a3b8" font-size="11" text-anchor="middle">🎤 Demo en vivo</text>
  <text x="600" y="385" fill="#94a3b8" font-size="11" text-anchor="middle">🛡️ OWASP report</text>
  <text x="750" y="385" fill="#94a3b8" font-size="11" text-anchor="middle">⚖️ Trade-offs</text>

  <!-- Quality attributes footer -->
  <text x="450" y="430" fill="#4b5563" font-size="11" font-weight="600" text-anchor="middle">ISO 25010 — Atributos priorizados por semana</text>

  <rect x="150" y="440" width="88" height="24" fill="#1e293b" rx="4" stroke="#8b5cf6" stroke-width="1"/>
  <text x="194" y="456" fill="#8b5cf6" font-size="10" text-anchor="middle">Mantenibilidad</text>
  <rect x="256" y="440" width="78" height="24" fill="#1e293b" rx="4" stroke="#06b6d4" stroke-width="1"/>
  <text x="295" y="456" fill="#06b6d4" font-size="10" text-anchor="middle">Portabilidad</text>
  <rect x="352" y="440" width="100" height="24" fill="#1e293b" rx="4" stroke="#10b981" stroke-width="1"/>
  <text x="402" y="456" fill="#10b981" font-size="10" text-anchor="middle">Compatibilidad</text>
  <rect x="470" y="440" width="80" height="24" fill="#1e293b" rx="4" stroke="#ef4444" stroke-width="1"/>
  <text x="510" y="456" fill="#ef4444" font-size="10" text-anchor="middle">Seguridad</text>
  <rect x="568" y="440" width="80" height="24" fill="#1e293b" rx="4" stroke="#f59e0b" stroke-width="1"/>
  <text x="608" y="456" fill="#f59e0b" font-size="10" text-anchor="middle">Fiabilidad</text>

  <!-- Footer -->
  <text x="450" y="500" fill="#374151" font-size="10" text-anchor="middle">Bootcamp de Arquitectura de Software · SENA · bc-channel-epti</text>

  <!-- Arrow marker -->
  <defs>
    <marker id="arr" markerWidth="8" markerHeight="8" refX="6" refY="3" orient="auto">
      <path d="M0,0 L0,6 L8,3 z" fill="#374151"/>
    </marker>
  </defs>
</svg>
